<?xml version="1.0" encoding="UTF-8"?>
<svg xmlns="http://www.w3.org/2000/svg" xmlns:xlink="http://www.w3.org/1999/xlink" width="25px" height="25px" viewBox="0 0 25 28" version="1.1">
<g id="surface1">
<path style=" stroke:none;fill-rule:nonzero;fill:rgb(0%,0%,0%);fill-opacity:1;" d="M 1.785156 1.75 C 0.796875 1.75 0 2.53125 0 3.5 L 0 8.75 C 0 9.71875 0.796875 10.5 1.785156 10.5 C 2.773438 10.5 3.570312 9.71875 3.570312 8.75 L 3.570312 5.25 L 7.144531 5.25 C 8.128906 5.25 8.929688 4.46875 8.929688 3.5 C 8.929688 2.53125 8.128906 1.75 7.144531 1.75 Z M 3.570312 19.25 C 3.570312 18.28125 2.773438 17.5 1.785156 17.5 C 0.796875 17.5 0 18.28125 0 19.25 L 0 24.5 C 0 25.46875 0.796875 26.25 1.785156 26.25 L 7.144531 26.25 C 8.128906 26.25 8.929688 25.46875 8.929688 24.5 C 8.929688 23.53125 8.128906 22.75 7.144531 22.75 L 3.570312 22.75 Z M 17.855469 1.75 C 16.871094 1.75 16.070312 2.53125 16.070312 3.5 C 16.070312 4.46875 16.871094 5.25 17.855469 5.25 L 21.429688 5.25 L 21.429688 8.75 C 21.429688 9.71875 22.226562 10.5 23.214844 10.5 C 24.203125 10.5 25 9.71875 25 8.75 L 25 3.5 C 25 2.53125 24.203125 1.75 23.214844 1.75 Z M 25 19.25 C 25 18.28125 24.203125 17.5 23.214844 17.5 C 22.226562 17.5 21.429688 18.28125 21.429688 19.25 L 21.429688 22.75 L 17.855469 22.75 C 16.871094 22.75 16.070312 23.53125 16.070312 24.5 C 16.070312 25.46875 16.871094 26.25 17.855469 26.25 L 23.214844 26.25 C 24.203125 26.25 25 25.46875 25 24.5 Z M 25 19.25 "/>
</g>
</svg>
