<?xml version="1.0" encoding="UTF-8"?>
<svg xmlns="http://www.w3.org/2000/svg" xmlns:xlink="http://www.w3.org/1999/xlink" width="25px" height="25px" viewBox="0 0 25 22" version="1.1">
<g id="surface1">
<path style=" stroke:none;fill-rule:nonzero;fill:rgb(0%,0%,0%);fill-opacity:1;" d="M 24.992188 10.976562 C 24.992188 11.75 24.339844 12.359375 23.601562 12.359375 L 22.214844 12.359375 L 22.242188 19.242188 C 22.242188 19.359375 22.234375 19.472656 22.222656 19.589844 L 22.222656 20.28125 C 22.222656 21.230469 21.445312 22 20.484375 22 L 19.792969 22 C 19.742188 22 19.695312 22 19.648438 21.996094 C 19.585938 22 19.527344 22 19.464844 22 L 17.015625 22 C 16.054688 22 15.277344 21.230469 15.277344 20.28125 L 15.277344 16.5 C 15.277344 15.738281 14.65625 15.125 13.890625 15.125 L 11.109375 15.125 C 10.34375 15.125 9.722656 15.738281 9.722656 16.5 L 9.722656 20.28125 C 9.722656 21.230469 8.945312 22 7.984375 22 L 5.558594 22 C 5.496094 22 5.429688 21.996094 5.363281 21.992188 C 5.3125 21.996094 5.261719 22 5.207031 22 L 4.515625 22 C 3.554688 22 2.777344 21.230469 2.777344 20.28125 L 2.777344 15.46875 C 2.777344 15.429688 2.777344 15.386719 2.78125 15.347656 L 2.78125 12.359375 L 1.390625 12.359375 C 0.609375 12.359375 0 11.757812 0 10.980469 C 0 10.59375 0.128906 10.25 0.433594 9.949219 L 11.5625 0.34375 C 11.867188 0.0429688 12.214844 0 12.515625 0 C 12.820312 0 13.167969 0.0859375 13.429688 0.300781 L 24.515625 9.945312 C 24.859375 10.25 25.035156 10.59375 24.992188 10.976562 Z M 24.992188 10.976562 "/>
</g>
</svg>
